<svg aria-hidden="true" style="position: absolute; width: 0; height: 0; overflow: hidden;" version="1.1" xmlns="http://www.w3.org/2000/svg" xmlns:xlink="http://www.w3.org/1999/xlink">
<defs>
<symbol id="icon-arrow-right_header" viewBox="0 0 32 32">
<path d="M0 0h32v32h-32z"></path>
</symbol>
<symbol id="icon-arrow-right_products" viewBox="0 0 492.004 492.004">
<path d="M484.14 226.886L306.46 49.202c-5.072-5.072-11.832-7.856-19.04-7.856-7.216 0-13.972 2.788-19.044 7.856l-16.132 16.136c-5.068 5.064-7.86 11.828-7.86 19.04 0 7.208 2.792 14.2 7.86 19.264L355.9 207.526H26.58C11.732 207.526 0 219.15 0 234.002v22.812c0 14.852 11.732 27.648 26.58 27.648h330.496L252.248 388.926c-5.068 5.072-7.86 11.652-7.86 18.864 0 7.204 2.792 13.88 7.86 18.948l16.132 16.084c5.072 5.072 11.828 7.836 19.044 7.836 7.208 0 13.968-2.8 19.04-7.872l177.68-177.68c5.084-5.088 7.88-11.88 7.86-19.1.016-7.244-2.776-14.04-7.864-19.12z"/></path>
</symbol>
<symbol id="icon-burger_menu_header" viewBox="0 0 46 32">
<path fill="none" stroke="#d41443" style="stroke: var(--color1, #d41443)" stroke-linejoin="miter" stroke-linecap="butt" stroke-miterlimit="4" stroke-width="2.2857" d="M0 2.286h45.714M0 16h45.714M0 29.714h45.714"></path>
</symbol>
<symbol id="icon-close" viewBox="0 0 32 32">
<path fill="none" stroke="#fff" style="stroke: var(--color2, #fff)" stroke-linejoin="miter" stroke-linecap="butt" stroke-miterlimit="4" stroke-width="2" d="M2.52 2l26.96 28M2 29.48l28-26.96"></path>
</symbol>
<symbol id="icon-ellipse_1" viewBox="0 0 32 32">
<path  d="M32 16c0 8.837-7.163 16-16 16s-16-7.163-16-16c0-8.837 7.163-16 16-16s16 7.163 16 16z"></path>
</symbol>
<symbol id="icon-ellipse_2" viewBox="0 0 32 32">
<path  d="M32 16c0 8.837-7.163 16-16 16s-16-7.163-16-16c0-8.837 7.163-16 16-16s16 7.163 16 16z"></path>
</symbol>
<symbol id="icon-ellipse_4" viewBox="0 0 32 32">
<path  d="M32 16c0 8.837-7.163 16-16 16s-16-7.163-16-16c0-8.837 7.163-16 16-16s16 7.163 16 16z"></path>
</symbol>
<symbol id="icon-ellipse_house" viewBox="0 0 35 32">
<path  d="M33.053 16c0 8.837-7.163 16-16 16s-16-7.163-16-16c0-8.837 7.163-16 16-16s16 7.163 16 16z"></path>
</symbol>
<symbol id="icon-facebook_desk" viewBox="0 0 16 32">
<path  d="M14.143 15.971h-4.033v14.865h-6.112v-14.865h-2.906v-5.222h2.906v-3.382c0-2.417 1.142-6.204 6.167-6.204l4.527 0.019v5.072h-3.284c-0.538 0-1.297 0.272-1.297 1.425v3.073h4.567l-0.534 5.219z"></path>
</symbol>
<symbol id="icon-facebook_mob" viewBox="0 0 16 32">
<path  d="M14.266 15.97h-4.176v15.39h-6.328v-15.392h-3.008v-5.408h3.008v-3.498c0-2.504 1.184-6.422 6.384-6.422l4.688 0.019v5.25h-3.402c-0.557 0-1.342 0.282-1.342 1.475v3.184h4.73l-0.554 5.4z"></path>
</symbol>
<symbol id="icon-group_3_three_dots" viewBox="0 0 139 32">
<path  d="M85.333 16c0 8.837-7.163 16-16 16s-16-7.163-16-16c0-8.837 7.163-16 16-16s16 7.163 16 16z"></path>
<path  d="M32 16c0 8.837-7.163 16-16 16s-16-7.163-16-16c0-8.837 7.163-16 16-16s16 7.163 16 16z"></path>
<path  d="M138.667 16c0 8.837-7.163 16-16 16s-16-7.163-16-16c0-8.837 7.163-16 16-16s16 7.163 16 16z"></path>
</symbol>
<symbol id="icon-icon_1" viewBox="0 0 21 32">
<path d="M0 0h21.12v32h-21.12z"></path>
</symbol>
<symbol id="icon-icon_2" viewBox="0 0 32 32">
<path d="M0 0h32v32h-32z"></path>
</symbol>
<symbol id="icon-icon_3" viewBox="0 0 28 32">
<path d="M0 0h28.16v32h-28.16z"></path>
</symbol>
<symbol id="icon-inverted_commas" viewBox="0 0 43 32">
<path  d="M32.014 0c1.928 0 3.75 0.52 5.464 1.561s3.107 2.536 4.178 4.488c1.029 1.951 1.543 4.25 1.543 6.894s-0.643 5.225-1.928 7.74c-0.429 0.91-1.2 2.081-2.315 3.512-1.157 1.43-2.228 2.666-3.214 3.707l-4.050 4.098-2.893-4.813c2.063-1.302 3.824-2.855 5.306-4.646l0.030-0.037c1.542-1.821 2.314-3.49 2.314-5.008 0-0.781-0.171-1.41-0.514-1.886-1.5 1.084-3.172 1.626-5.014 1.626-1.328 0-2.593-0.412-3.793-1.236-1.237-0.782-2.237-1.834-2.935-3.078l-0.022-0.043c-0.771-1.258-1.157-2.558-1.157-3.902 0-1.518 0.45-2.97 1.35-4.358 0.866-1.389 2.011-2.526 3.364-3.356l0.044-0.025c1.37-0.824 2.784-1.236 4.242-1.236zM8.936 0c1.928 0 3.75 0.52 5.464 1.561s3.107 2.536 4.178 4.488c1.029 1.951 1.543 4.25 1.543 6.894 0 1.864-0.236 3.534-0.707 5.008-0.472 1.518-1.286 3.1-2.443 4.748-1.114 1.561-2.164 2.862-3.15 3.902-0.986 1.084-2.7 2.883-5.143 5.398l-2.893-4.813c2.063-1.302 3.824-2.855 5.306-4.646l0.030-0.037c1.542-1.821 2.314-3.49 2.314-5.008 0-0.781-0.172-1.41-0.514-1.886-1.5 1.084-3.172 1.626-5.014 1.626-1.328 0-2.593-0.412-3.793-1.236-1.237-0.782-2.237-1.834-2.935-3.078l-0.022-0.043c-0.771-1.258-1.157-2.558-1.157-3.902 0-1.518 0.429-2.97 1.286-4.358 0.866-1.389 2.011-2.526 3.364-3.356l0.045-0.025c1.37-0.824 2.784-1.236 4.242-1.236z"></path>
</symbol>
<symbol id="icon-logo" viewBox="0 0 127 32">
<path d="M0 0h127.36v32h-127.36z"></path>
</symbol>
<symbol id="icon-telegram_desk" viewBox="0 0 44 32">
<path  d="M17.342 21.048l-0.674 8.86c0.966 0 1.384-0.388 1.886-0.852l4.526-4.040 9.38 6.414c1.72 0.894 2.934 0.422 3.398-1.478l6.158-26.932c0.548-2.374-0.92-3.302-2.594-2.72l-36.194 12.934c-2.47 0.896-2.434 2.18-0.42 2.766l9.252 2.684 21.494-12.552c1.012-0.626 1.932-0.28 1.176 0.346l-17.39 14.57z"></path>
</symbol>
<symbol id="icon-telegram_mob" viewBox="0 0 44 32">
<path  d="M17.342 21.048l-0.674 8.86c0.966 0 1.384-0.388 1.886-0.852l4.526-4.040 9.38 6.414c1.72 0.894 2.934 0.422 3.398-1.478l6.158-26.932c0.548-2.374-0.92-3.302-2.594-2.72l-36.194 12.934c-2.47 0.896-2.434 2.18-0.42 2.766l9.252 2.684 21.494-12.552c1.012-0.626 1.932-0.28 1.176 0.346l-17.39 14.57z"></path>
</symbol>
<symbol id="icon-vector_arrow" viewBox="0 0 22 32">
<path fill="none" stroke="#fff" style="stroke: var(--color2)" stroke-linejoin="round" stroke-linecap="round" stroke-miterlimit="4" stroke-width="6.4" d="M4.49 3.2l13.696 12.8-13.696 12.8"></path>
</symbol>
<symbol id="icon-vector_from_burger" viewBox="0 0 320 32">
<path fill="none" stroke="#d41443" style="stroke: var(--color1, #d41443)" stroke-linejoin="miter" stroke-linecap="butt" stroke-miterlimit="4" stroke-width="16" d="M0 16h320"></path>
</symbol>
<symbol id="icon-vector_house" viewBox="0 0 35 32">
<path  d="M32.64 15.4c0.256-0.274 0.413-0.644 0.413-1.050 0-0.47-0.21-0.89-0.541-1.173l-0.002-0.002-14.773-12.749c-0.319-0.265-0.733-0.425-1.184-0.425-0.466 0-0.892 0.171-1.218 0.454l0.002-0.002-14.821 13.403c-0.316 0.282-0.515 0.69-0.515 1.145 0 0.42 0.169 0.8 0.443 1.077l-0-0 0.373 0.381c0.613 0.635 1.611 0.709 2.224 0.168l1.107-0.979v14.328c0.006 0.879 0.72 1.589 1.6 1.589 0.005 0 0.009-0 0.014-0h5.775c0.004 0 0.009 0 0.013 0 0.88 0 1.594-0.71 1.6-1.589v-10.025h7.371v10.024c-0.013 0.88 0.624 1.589 1.515 1.589h6.123c0.003 0 0.007 0 0.011 0 0.88 0 1.594-0.71 1.6-1.589v-14.126l0.685 0.592c0.376 0.325 1.168 0.064 1.765-0.587l0.421-0.453z"></path>
</symbol>
</defs>
</svg>
